# xmcd
#
# Track frame offsets:
#	150
#	17782
#	51684
#	77389
#	90107
#	104327
#	118992
#	131321
#	144842
#	153391
#	168174
#	180717
#	197520
#	220220
#	242582
#	258134
#	279579
#	323896
#
# Disc length: 4595 seconds
#
# Revision: 1
# Processed by: cddbd v1.5.2PL0 Copyright (c) Steve Scherf et al.
# Submitted via: audiograbber 1.83.01
#
DISCID=ec11f112
DTITLE=Classic Rock - Blues Rock [CD2]
DYEAR=2006
DGENRE=Blues
TTITLE0=ZZ Top - La Grange
TTITLE1=Status Quo - Roadhouse Blues
TTITLE2=Thin Lizzy - Still In Love With You
TTITLE3=Dr. Feelgood - Milk And Alcohol
TTITLE4=The Steve Miller Band - Rock 'N' Me
TTITLE5=Chris Farlowe - Out Of Time
TTITLE6=Johnny Winter - Good Morning Little Schoolgirl
TTITLE7=Taj Mahal - Statesboro Blues
TTITLE8=Stevie Ray Vaughan and Double Trouble - Scuttle Buttin'
TTITLE9=Chicken Shack - I'd Rather Go Blind
TTITLE10=J. J. Cale - Cocaine
TTITLE11=Joe Walsh and Barnstorm - Rocky Mountain Way
TTITLE12=Robin Trower - Day Of The Eagle
TTITLE13=George Thorogood and The Destroyers - Bad To The Bone
TTITLE14=Pat Travers - Snortin' Whiskey
TTITLE15=Ian Hunter - Once Bitten Twice Shy
TTITLE16=Ten Years After - I'm Going Home (Live)
TTITLE17=The Band - The Weight
EXTD=
EXTT0=
EXTT1=
EXTT2=
EXTT3=
EXTT4=
EXTT5=
EXTT6=
EXTT7=
EXTT8=
EXTT9=
EXTT10=
EXTT11=
EXTT12=
EXTT13=
EXTT14=
EXTT15=
EXTT16=
EXTT17=
PLAYORDER=
